<svg xmlns="http://www.w3.org/2000/svg" width="22.857" height="20" viewBox="0 0 22.857 20"><path d="M.816,13.718H22.041a.816.816,0,0,0,.816-.816V10.861a.816.816,0,0,0-.816-.816H.816A.816.816,0,0,0,0,10.861V12.9A.816.816,0,0,0,.816,13.718Zm0,8.163H22.041a.816.816,0,0,0,.816-.816V19.024a.816.816,0,0,0-.816-.816H.816A.816.816,0,0,0,0,19.024v2.041A.816.816,0,0,0,.816,21.881Zm0,8.163H22.041a.816.816,0,0,0,.816-.816V27.187a.816.816,0,0,0-.816-.816H.816A.816.816,0,0,0,0,27.187v2.041A.816.816,0,0,0,.816,30.045Z" transform="translate(0 -10.045)"/></svg>