<svg xmlns="http://www.w3.org/2000/svg" width="18.667" height="14" viewBox="0 0 18.667 14"><defs><style>.a{fill:#a5a5a5;}</style></defs><path class="a" d="M18.313,14a.219.219,0,0,1,.354.171v7.456a1.75,1.75,0,0,1-1.75,1.75H1.75A1.75,1.75,0,0,1,0,21.625V14.173A.218.218,0,0,1,.354,14c.817.634,1.9,1.44,5.618,4.142.769.561,2.067,1.743,3.361,1.735,1.3.011,2.625-1.2,3.365-1.735C16.417,15.442,17.5,14.632,18.313,14Zm-8.98,4.71c.846.015,2.064-1.065,2.676-1.509,4.838-3.511,5.206-3.817,6.322-4.692a.872.872,0,0,0,.335-.689v-.693a1.75,1.75,0,0,0-1.75-1.75H1.75A1.75,1.75,0,0,0,0,11.125v.693a.878.878,0,0,0,.335.689c1.116.871,1.484,1.181,6.322,4.692C7.27,17.644,8.487,18.723,9.333,18.708Z" transform="translate(0 -9.375)"/></svg>