<svg xmlns="http://www.w3.org/2000/svg" width="703.778" height="405.082" viewBox="0 0 703.778 405.082"><defs><style>.a{fill:#ebebeb;}.b{fill:#e0e0e0;}.c{fill:#f5f5f5;}.d{fill:#263238;}.e{fill:#4285f4;}.f{fill:#fafafa;}.g{fill:#e8505b;}.h{fill:#000f10;}.i{opacity:0.5;}.j{opacity:0.4;}.k{fill:#fff;}.l{fill:#455a64;}.m{fill:#2e3367;}.n{opacity:0.2;}.o{fill:#b78876;}.p{fill:#aa6550;}.q{fill:#303679;}.r{opacity:0.3;}.s{fill:#2f387c;}</style></defs><g transform="translate(0)"><path class="a" d="M639.77,126.367a13.888,13.888,0,0,0-3.572,10.265,24.5,24.5,0,0,0,3.326,10.614c3.48,6.344,10.019,11.507,16.28,15.151,3.583-7.185,1.376-16.249,0-20.776-2.238-7.185-10.614-18.713-15.993-15.295" transform="translate(-606.987 3.331)"/><path class="a" d="M663.915,175.042a11.876,11.876,0,0,0-7.853-8.992,15.787,15.787,0,0,0-12.154,1.026c-1.725.873-3.439,2.176-3.849,4.106a5.132,5.132,0,0,0,1.879,4.794,10.264,10.264,0,0,0,4.958,2.053c6.159,1.026,12.205.944,17.019-2.956" transform="translate(-617.09 4.379)"/><path class="b" d="M654.2,192.313a8.106,8.106,0,0,0-.76-1.283l-2.2-3.418c-1.889-2.833-4.5-6.929-8.664-10.265a25.5,25.5,0,0,0-12.143-5.481,17.154,17.154,0,0,0-4.106-.113,6.335,6.335,0,0,0-1.1.154c-.246.031-.38.082-.38.1a26.69,26.69,0,0,1,5.5.216,26.339,26.339,0,0,1,11.887,5.564c4.106,3.233,6.724,7.247,8.684,10.029.975,1.406,1.766,2.556,2.33,3.326A8.508,8.508,0,0,0,654.2,192.313Z" transform="translate(-591.821 4.549)"/><path class="b" d="M624.4,135.48a3.743,3.743,0,0,0,.174.626c.164.452.359,1.026.606,1.755.534,1.519,1.334,3.716,2.34,6.416,2.053,5.4,4.907,12.821,8.284,20.941s6.611,15.4,9.023,20.643c1.2,2.618,2.2,4.732,2.895,6.159.339.688.616,1.232.821,1.663a3.454,3.454,0,0,0,.318.565,3.084,3.084,0,0,0-.216-.606c-.2-.441-.431-1.027-.739-1.7-.667-1.54-1.6-3.654-2.741-6.251-2.32-5.276-5.492-12.575-8.869-20.694s-6.323-15.51-8.428-20.869c-1.027-2.638-1.889-4.794-2.494-6.354-.287-.708-.513-1.283-.7-1.725a2.567,2.567,0,0,0-.277-.565Z" transform="translate(-586.023 3.59)"/><path class="a" d="M615.128,175.555a27.808,27.808,0,0,1,6.3-24.636c1.5-1.663,3.706-3.254,5.81-2.494s2.8,3.408,2.843,5.656a23.763,23.763,0,0,1-14.6,21.946" transform="translate(-557.011 3.928)"/><path class="b" d="M629.313,157.38a7.657,7.657,0,0,0-1.026,1.026,12.891,12.891,0,0,0-1.026,1.273,19.222,19.222,0,0,0-1.273,1.776,23.668,23.668,0,0,0-1.345,2.269,27.5,27.5,0,0,0-1.314,2.751,31.3,31.3,0,0,0-1.858,6.7,30.311,30.311,0,0,0-.185,6.97,25.173,25.173,0,0,0,.462,3,22.713,22.713,0,0,0,.657,2.566,20.856,20.856,0,0,0,.739,2.053,12.24,12.24,0,0,0,.667,1.509,8.048,8.048,0,0,0,.677,1.232c.113,0-.842-1.817-1.724-4.9a23.465,23.465,0,0,1-.585-2.546,24.918,24.918,0,0,1-.411-2.967,31.064,31.064,0,0,1,.216-6.836,32.492,32.492,0,0,1,1.8-6.611,29.438,29.438,0,0,1,1.242-2.72,25.458,25.458,0,0,1,1.283-2.279C628.03,158.92,629.4,157.452,629.313,157.38Z" transform="translate(-563.159 4.17)"/><path class="a" d="M125.9,64.015s9.444,3.079.287,23.291-15.7,30.395-15.7,30.395-1.571,4.671,2.33,5.2,12.318-1.232,14.279,3.418c2.053,4.825-1.324,9.618-8.356,14.012s-22.09,14.6-23.445,15.531-2.607,3.079,0,3.9,21.823,1.878,20.756,11S93.34,188.867,91.04,189.9s-2.864,2.053-2.607,3.377,6.754,1.026,12.205,1.591,11.692,2.115,10.645,7.309-13.57,16.6-45.043,21.187l-14.72,1.17-8.612-12.082c-16.845-26.976-16.239-43.893-12.954-48.05s8.52-.431,12.451,3.387,7.955,8.931,9.115,8.284,1.612-1.714.883-4.168-7.8-24.78-1.55-31.472,19.5,7.268,21.8,8.735,3.131-.924,2.967-2.525-2.125-19.719-3.316-27.921.308-13.868,5.286-15.4c4.8-1.529,8.92,6.056,11.846,8.684s5.481-1.591,5.481-1.591,3.5-11.569,13.026-31.647,18.138-14.669,18.138-14.669" transform="translate(544.747 1.681)"/><path class="b" d="M40.609,227.555c6.929-14.771,18.805-41.234,29.152-63.91s19.688-43.113,26.545-57.976l8.15-17.5,2.176-4.794.565-1.242.185-.431s-.082.133-.226.411l-.606,1.222-2.289,4.732c-1.981,4.106-4.814,10.08-8.274,17.45-6.939,14.771-16.352,35.26-26.689,57.925S47.127,212.588,40.27,227.4" transform="translate(555.063 2.165)"/><path class="b" d="M67.187,127.56a4.763,4.763,0,0,0-1.026.339c-.636.236-1.56.616-2.689,1.088-2.269.944-5.358,2.34-8.735,3.942l-8.643,4.106-2.628,1.232a4.733,4.733,0,0,0-.944.493,5.029,5.029,0,0,0,1.026-.329c.647-.246,1.56-.616,2.689-1.109,2.258-.975,5.328-2.4,8.7-4l8.674-4.106c1.027-.493,1.92-.893,2.628-1.222A5.039,5.039,0,0,0,67.187,127.56Z" transform="translate(592.949 3.38)"/><path class="b" d="M79.577,138.376c.123,0-2.474-6.549-5.789-14.515s-6.159-14.371-6.221-14.371,2.474,6.539,5.8,14.5S79.464,138.417,79.577,138.376Z" transform="translate(554.845 2.901)"/><path class="b" d="M97.924,172.8a4.9,4.9,0,0,0-.647-.883l-1.858-2.31c-1.56-1.95-3.716-4.65-5.984-7.719s-4.229-5.913-5.635-7.986l-1.663-2.443a3.983,3.983,0,0,0-.657-.873,5.788,5.788,0,0,0,.5.965c.359.606.883,1.478,1.55,2.535,1.334,2.115,3.254,5,5.533,8.079s4.476,5.748,6.159,7.647c.821.955,1.488,1.714,1.971,2.217a4.96,4.96,0,0,0,.729.77Z" transform="translate(522.219 3.99)"/><path class="b" d="M82.154,168.11a4.1,4.1,0,0,0-1.026.062l-2.72.349c-2.3.308-5.461.77-8.941,1.3s-6.652,1.026-8.931,1.447l-2.689.482A4.885,4.885,0,0,0,56.82,172a4.108,4.108,0,0,0,1.026-.062l2.72-.349c2.289-.308,5.461-.77,8.941-1.3s6.641-1.026,8.931-1.447l2.689-.482a4.885,4.885,0,0,0,1.027-.246Z" transform="translate(563.303 4.454)"/><path class="b" d="M97.657,200.22a6.636,6.636,0,0,0-1.283.092l-3.49.431c-2.936.38-6.99.944-11.476,1.591s-8.52,1.252-11.456,1.714l-3.459.575a7.2,7.2,0,0,0-1.263.267,5.725,5.725,0,0,0,1.283-.092l3.49-.431c2.936-.38,7-.934,11.476-1.581s8.52-1.252,11.456-1.724l3.459-.565a7.346,7.346,0,0,0,1.263-.277Z" transform="translate(539.167 5.305)"/><path class="b" d="M116.178,205.192a6.818,6.818,0,0,0-.78-1.139l-2.248-3.008c-1.9-2.546-4.506-6.067-7.278-10.039s-5.194-7.627-6.929-10.265l-2.053-3.151a9.536,9.536,0,0,0-.79-1.129,6.723,6.723,0,0,0,.636,1.222c.441.78,1.1,1.878,1.94,3.233,1.663,2.71,4.034,6.4,6.816,10.378s5.43,7.473,7.4,9.967c1.026,1.252,1.8,2.248,2.361,2.926a7.865,7.865,0,0,0,.924,1.006Z" transform="translate(488.958 4.675)"/><path class="c" d="M373.063,186.893c26.3-13.232,36.194-43.421,39.274-71.4.513-4.671,1.735-9.5.113-13.9s-6.375-7.925-10.819-6.57c-3.685,1.129-5.769,4.927-8.212,7.966a27.572,27.572,0,0,1-12.41,8.838c-3.182,1.109-6.98,1.519-9.67-.524-3.685-2.782-3.357-8.4-2.659-13.016q2.012-12.9,3.921-25.816c.7-4.619,1.4-9.341.6-13.93s-3.387-9.136-7.606-11-10.029-.113-11.61,4.27c-.657,1.827-.565,3.839-.965,5.738s-1.612,3.9-3.511,4.168-3.582-1.3-4.763-2.854c-4.106-5.358-6.467-11.835-8.633-18.251s-4.209-12.965-7.8-18.682-9-10.614-15.562-11.918-14.217,1.735-16.824,7.986.226,13.437,3.593,19.319a104.475,104.475,0,0,0,18.477,23.609c1.3,1.242,2.73,2.587,3.08,4.383.554,3.233-2.8,5.872-5.995,6.436-3.613.657-7.3-.246-10.963-.339s-7.8.924-9.659,4.106c-2.577,4.445.657,9.978,4.106,13.776a89.233,89.233,0,0,0,23.979,18.888c3.223,1.735,6.641,3.346,9.043,6.159s3.449,7.185,1.324,10.193-6.539,3.449-10,2.279-6.375-3.572-9.587-5.348c-6.005-3.316-14.268-4.106-19.134.842-3.192,3.223-4.157,8.212-3.428,12.708s2.936,8.6,5.358,12.441c8.448,13.416,20.1,24.913,34.1,32.16s27.448,10.593,42.866,7.35" transform="translate(-7.706 0.257)"/><path class="b" d="M399.1,168.33a419.848,419.848,0,0,0-10.029-46.972l-3.254-12.184c-1.078-3.993-2.145-7.955-3.428-11.764a209.136,209.136,0,0,0-8.633-21.464c-3.08-6.7-6.231-12.944-9.238-18.754S358.6,46.013,355.745,41.24a166.913,166.913,0,0,0-15.172-21.556c-1.981-2.381-3.582-4.188-4.681-5.4l-1.222-1.273a4.5,4.5,0,0,0-.441-.441,2.617,2.617,0,0,0,.38.5l1.2,1.417c1.027,1.252,2.607,3.079,4.547,5.5A176.558,176.558,0,0,1,355.2,41.558c2.823,4.773,5.687,10.142,8.674,15.962s6.1,12.072,9.146,18.764a207.481,207.481,0,0,1,8.551,21.4c1.345,3.788,2.371,7.709,3.459,11.723l3.244,12.174a427.755,427.755,0,0,1,10.039,46.859" transform="translate(-38.408 0.333)"/><path class="b" d="M336.98,96.448a11.048,11.048,0,0,0,.729-1.909c.421-1.242,1.026-3.079,1.642-5.317,1.314-4.506,2.925-10.8,4.671-17.738s3.449-13.19,4.824-17.666c.688-2.238,1.263-4.044,1.673-5.286a9.52,9.52,0,0,0,.554-1.971,8.818,8.818,0,0,0-.862,1.858c-.513,1.211-1.18,2.987-1.94,5.215-1.54,4.445-3.326,10.7-5.081,17.645s-3.233,13.047-4.455,17.82c-.554,2.135-1.026,3.942-1.386,5.379a8.971,8.971,0,0,0-.369,1.971Z" transform="translate(6.8 1.234)"/><path class="b" d="M350.71,76a14.021,14.021,0,0,0,2.33.626c1.509.349,3.7.852,6.364,1.56,5.358,1.375,12.7,3.541,20.684,6.272S395.2,90,400.29,92.178c2.556,1.026,4.6,1.981,6.015,2.607a13.342,13.342,0,0,0,2.238.914,12.432,12.432,0,0,0-2.053-1.211c-1.375-.729-3.387-1.735-5.913-2.874-5.05-2.32-12.164-5.225-20.171-7.976a214.893,214.893,0,0,0-20.817-6.046c-2.7-.636-4.907-1.026-6.436-1.3A12.039,12.039,0,0,0,350.71,76Z" transform="translate(-64.763 2.014)"/><path class="b" d="M294.95,164.988a3.951,3.951,0,0,0,.513-.667l1.324-2.053c1.15-1.745,2.73-4.311,4.66-7.514,3.849-6.4,8.889-15.4,14.32-25.4s10.388-19.042,14.1-25.508c1.807-3.141,3.305-5.728,4.414-7.647.482-.831.872-1.519,1.191-2.053a3.5,3.5,0,0,0,.37-.76,5.772,5.772,0,0,0-.513.667l-1.324,2.053c-1.15,1.745-2.741,4.311-4.66,7.5-3.86,6.4-8.9,15.4-14.371,25.406s-10.378,19.041-14.094,25.508l-4.414,7.647-1.2,2.053A2.915,2.915,0,0,0,294.95,164.988Z" transform="translate(65.172 2.475)"/><path class="b" d="M334.76,127.22a6.807,6.807,0,0,0,.729.441l2.186,1.1,8.058,3.962c6.806,3.346,16.157,8.079,26.473,13.344s19.729,9.9,26.607,13.1c3.439,1.612,6.231,2.874,8.212,3.716l2.248.955a3.081,3.081,0,0,0,.811.277,3.449,3.449,0,0,0-.739-.441l-2.186-1.1L399.1,158.61c-6.806-3.346-16.147-8.079-26.473-13.344s-19.719-9.9-26.6-13.1c-3.439-1.612-6.231-2.874-8.212-3.716l-2.258-.955a3.081,3.081,0,0,0-.8-.277Z" transform="translate(-49.932 3.371)"/><path class="c" d="M489.12,59.885c0-16.742,17.594-27.356,35.537-18.959a20.4,20.4,0,0,1,9.433,9.043c4.517,8.746,2.525,18.734-1.57,27.017L518.56,112.38a6.015,6.015,0,0,1-11.209,0L493.678,76.761C488.915,65.921,489.12,59.885,489.12,59.885ZM506,74.461c12.061,7.011,24.277-5.954,17.666-18.744a9.946,9.946,0,0,0-3.829-4.106c-12.061-7.011-24.287,5.954-17.666,18.744A9.947,9.947,0,0,0,506,74.461Z" transform="translate(-334.964 1.007)"/><path class="d" d="M7.19,391.767c0,.144,153.974.267,343.876.267s343.876-.123,343.876-.267-153.974-.267-343.876-.267S7.19,391.613,7.19,391.767Z" transform="translate(1.46 10.373)"/><path class="e" d="M160.948,402.14,297.39,401.5a29.768,29.768,0,0,0,29.584-29.84L325.526,29.594A29.768,29.768,0,0,0,295.665,0L159.224.626a29.768,29.768,0,0,0-29.584,29.85l1.447,342.069a29.768,29.768,0,0,0,29.861,29.594Z" transform="translate(243.734 0)"/><path class="f" d="M159.2,12.135l26.453-.123a6.559,6.559,0,0,1,6.446,6.682v4.794a6.57,6.57,0,0,0,6.446,6.693l51.561-.246a6.559,6.559,0,0,0,6.4-6.744V18.4a6.58,6.58,0,0,1,6.4-6.744h9.31l23.147-.113a20.817,20.817,0,0,1,20.92,20.725l1.417,333.888a20.817,20.817,0,0,1-20.715,20.9l-136.175.626a20.817,20.817,0,0,1-20.91-20.725L138.47,33.076A20.817,20.817,0,0,1,159.2,12.135Z" transform="translate(243.957 0.306)"/><path class="a" d="M181.91,70.73H159.594L139.68,90.644l20.694,20.7,21.3-21.29Z" transform="translate(378.491 1.874)"/><path class="a" d="M188.341,81.909,199.519,70.73H174.36Z" transform="translate(325.283 1.874)"/><path class="a" d="M284.032,91.016l-19.6-19.586H195.969s-10.48,46.808,30.795,76.854Z" transform="translate(219.81 1.893)"/><path class="a" d="M224.2,96.6l20.961,20.971-58.007,58.007L166.19,153.909Z" transform="translate(288.031 2.56)"/><path class="a" d="M152.569,129.284,139.44,115.653l12.883-12.883Z" transform="translate(408.079 2.723)"/><path class="a" d="M197.016,123.15,217.2,143.331v28.044l-41.665,42.63-35.3-32.848Z" transform="translate(342.64 3.263)"/><path class="a" d="M314.339,154.136S271.1,122.437,285.084,71.4H258.2l.328,144.069Z" transform="translate(124.402 1.892)"/><path class="a" d="M292.741,160.13l20.91,21.834-64.1,64.094L229.94,225.282Z" transform="translate(154.099 4.243)"/><path class="a" d="M255.085,187.22l32.848,32.622L222.227,285.1l-32.8-31.708Z" transform="translate(221.401 4.961)"/><path class="a" d="M302.67,347.794,252.443,295.72,204.66,344.427Z" transform="translate(191.03 7.835)"/><path class="a" d="M313.571,290.518,261.22,238.69c0,2.3.452,107.495.452,107.495Z" transform="translate(122.07 6.324)"/><path class="a" d="M192.726,260.81,163.05,290.486l58.582,60.471,27.079-32.478Z" transform="translate(287.701 6.91)"/><path class="a" d="M214.045,324.836c-2.8-.287-74.565-67.482-74.565-67.482l74.565-77.264Z" transform="translate(346.562 4.772)"/><path class="a" d="M179.674,336.405,162.4,321.1,138.47,349.359h41.2V338.55" transform="translate(381.97 8.508)"/><path class="d" d="M155.25,51.149a43.686,43.686,0,0,0,5.132-4.465h0v-.39h0l-.062-.062-.123-.123-.257-.236-.493-.452-.934-.862L156.9,43.122a6.99,6.99,0,0,0-1.581-1.222,7.545,7.545,0,0,0,1.211,1.447l1.54,1.519.914.883.493.462.246.236.123.123.072.062h0v-.39h0a43.524,43.524,0,0,0-4.671,4.907Z" transform="translate(384.036 1.11)"/><path class="d" d="M296.31,43.309a1.109,1.109,0,1,0,1.109-1.109,1.109,1.109,0,0,0-1.109,1.109Z" transform="translate(101.094 1.118)"/><path class="d" d="M296.628,46.248a1.119,1.119,0,1,0,1.581,0A1.119,1.119,0,0,0,296.628,46.248Z" transform="translate(101.094 1.217)"/><path class="d" d="M296.31,50.769a1.109,1.109,0,1,0,1.109-1.109,1.109,1.109,0,0,0-1.109,1.109Z" transform="translate(101.094 1.316)"/><rect class="d" width="48.019" height="4.003" transform="translate(445.506 48.974)"/><path class="g" d="M194.783,118.351c0-18.7,19.657-30.559,39.695-21.177a22.706,22.706,0,0,1,10.542,10.1c5.05,9.762,2.823,20.92-1.755,30.179l-15.592,39.53a6.724,6.724,0,0,1-12.523-.062L199.864,137.2C194.568,125.1,194.783,118.351,194.783,118.351Zm18.826,16.28c13.478,7.832,27.13-6.652,19.74-20.94a11.291,11.291,0,0,0-4.27-4.537c-13.478-7.832-27.13,6.652-19.739,20.941a11.291,11.291,0,0,0,4.27,4.537Z" transform="translate(255.937 2.488)"/><rect class="h" width="569.52" height="83.567" transform="translate(42.422 263.594)"/><g class="i" transform="translate(42.422 263.594)"><rect class="h" width="569.52" height="83.567" transform="translate(0)"/></g><ellipse class="d" cx="54.917" cy="54.917" rx="54.917" ry="54.917" transform="translate(586.523 405.082) rotate(-176.15)"/><path class="d" d="M220.369,336.75v.144a54.923,54.923,0,0,1-109.835,1.581v-.144Z" transform="translate(369.944 8.922)"/><path class="f" d="M203.572,338.1a38.555,38.555,0,1,1-39.11-37.98A38.555,38.555,0,0,1,203.572,338.1Z" transform="translate(370.389 7.952)"/><path class="b" d="M164.464,300.1a38.555,38.555,0,0,1,39.109,37.98l-77.1,1.109A38.555,38.555,0,0,1,164.464,300.1Z" transform="translate(370.388 7.951)"/><path class="d" d="M188.118,337.928A23.486,23.486,0,1,1,164.3,314.78,23.486,23.486,0,0,1,188.118,337.928Z" transform="translate(370.775 8.34)"/><ellipse class="d" cx="54.917" cy="54.917" rx="54.917" ry="54.917" transform="matrix(-0.998, -0.058, 0.058, -0.998, 167.101, 404.564)"/><path class="d" d="M629.469,336.75v.144a54.923,54.923,0,0,1-109.835,1.581v-.144Z" transform="translate(-459.095 8.922)"/><path class="f" d="M612.672,338.1a38.555,38.555,0,1,1-39.109-37.98,38.555,38.555,0,0,1,39.109,37.98Z" transform="translate(-458.65 7.952)"/><path class="b" d="M573.564,300.1a38.555,38.555,0,0,1,39.11,37.98l-77.1,1.109A38.555,38.555,0,0,1,573.564,300.1Z" transform="translate(-458.652 7.951)"/><path class="d" d="M597.218,337.928A23.486,23.486,0,1,1,573.4,314.78,23.486,23.486,0,0,1,597.218,337.928Z" transform="translate(-458.264 8.34)"/><path d="M518.131,212.682S599,218.646,628.993,225.369c21.1,4.763,61.836,12.9,61.343,38.535L687.1,282.268s15.12,6.908,15.12,24.513,3.685,44.93-31.585,46.018c-5.81.185-16.855,0-16.855,0s6.775-75.109-62.236-77.305c-70.192-2.238-65.531,76.618-65.531,76.618H233.022s12.031-76.813-63.54-76.936-64.074,77.439-64.074,77.439-27.8,2.4-40.742-20.961S55.1,291.619,55.1,291.619l.431-14.771a9.567,9.567,0,0,1,9.187-9.238h0s-5.05-37.19,2.7-43.626,50.216-45.258,50.216-45.258l-2.053-1.273a4.763,4.763,0,0,1,1.026-8.54c16.126-5.543,48.009-16.506,55.5-19.134a13.919,13.919,0,0,1,3.48-.729c4.475-.349,17.142-1.15,40.382-1.4,28.331-.3,140.774,0,140.774,0s38.7,3.182,60.255,12.677C439.656,170.318,518.131,212.682,518.131,212.682Z" transform="translate(-54.703 3.909)"/><g class="j" transform="translate(623.191 308.292)"><path d="M66.6,300.7c2.936-.6,7.432-.657,9.67,1.334,1.663,1.478,2.053,3.86,2.351,6.067a25.827,25.827,0,0,1-.205,9.105,11.055,11.055,0,0,1-5.132,7.257c-2.679,1.458-6.354,1.222-8.438-1.027-1.909-2.053-2.125-5.133-2.053-7.883.072-3.962-.246-7.319.482-11.209a5.5,5.5,0,0,1,1.026-2.258,3.08,3.08,0,0,1,2.34-1.406" transform="translate(-62.78 -300.335)"/></g><path class="f" d="M95.49,279.324c-8.582,0-16.906-.472-25.478-1.026a3.079,3.079,0,0,1-3.5-3.89c0-4.6.185-9.824,3.675-12.821,2.135-1.837,5.061-2.4,7.853-2.669a50.872,50.872,0,0,1,20.684,2.053Z" transform="translate(536.909 6.853)"/><path class="k" d="M83.013,346.982a5.562,5.562,0,0,1,.072-.729c.072-.482.082-1.222.144-2.156.1-1.909.257-4.7.452-8.284s.441-8,.955-13.088a103.471,103.471,0,0,1,3.08-17.071A77.821,77.821,0,0,1,95.927,286.4a60.564,60.564,0,0,1,15.972-17.82c13.858-9.844,32.571-15.4,52.146-15.654s38.268,5.964,51.766,16.3a75.959,75.959,0,0,1,16.814,17.142,81.141,81.141,0,0,1,9.834,18.477,74.935,74.935,0,0,1,4.157,16.8,70.531,70.531,0,0,1,.5,13.078,64.925,64.925,0,0,1-1.026,8.212c-.164.924-.3,1.632-.38,2.125s-.113.729-.113.729.062-.246.164-.719.246-1.2.431-2.115a59.7,59.7,0,0,0,1.109-8.212,69.3,69.3,0,0,0-.411-13.129,75.521,75.521,0,0,0-4.106-16.9,81.463,81.463,0,0,0-9.834-18.631A75.962,75.962,0,0,0,216.078,268.8c-13.57-10.419-32.335-16.681-52.074-16.424s-38.463,5.841-52.423,15.8a60.706,60.706,0,0,0-16.044,17.994,77.89,77.89,0,0,0-8.212,19.38A102.979,102.979,0,0,0,84.368,322.7c-.493,5.133-.7,9.505-.862,13.108s-.277,6.375-.359,8.284c0,.944-.062,1.653-.082,2.156S83.013,346.982,83.013,346.982Z" transform="translate(371.125 6.687)"/><path class="d" d="M430.734,350.787v-.616l.062-1.827c0-1.612.123-3.993.226-7.093.175-6.221.431-15.336.76-26.915s.708-25.662,1.15-41.778q.154-6.056.339-12.482a42.331,42.331,0,0,0-.287-6.518c-.154-1.088-.308-2.2-.462-3.305s-.452-2.2-.688-3.305a68.91,68.91,0,0,0-12.082-25.662h0l-50.74-31.965-13.693-8.633a108.235,108.235,0,0,0-14.5-8.089,147.749,147.749,0,0,0-15.777-6.364c-2.689-.944-5.451-1.725-8.212-2.546s-5.574-1.5-8.427-2.053a191.337,191.337,0,0,0-32.7-4.106,306.688,306.688,0,0,0-31.657.113h-.3l.062.3c4.866,21.731,9.444,42.209,13.642,60.994h0a66.621,66.621,0,0,1,6.108,13.1,35.62,35.62,0,0,1,2.053,13.56c-.349,4.506-.472,8.91-.585,13.19s-.164,8.438-.246,12.462c-.236,16.116-.3,30.179-.339,41.758s0,20.674,0,26.894v0c0-6.221.092-15.315.154-26.894s.185-25.662.452-41.748q.144-6.036.267-12.462c.123-4.28.257-8.674.616-13.17a36.185,36.185,0,0,0-2.053-13.735,66.456,66.456,0,0,0-6.159-13.2v.072c-4.178-18.785-8.746-39.274-13.581-61l-.236.318a308.465,308.465,0,0,1,31.6-.092,192.162,192.162,0,0,1,32.612,4.106c2.833.575,5.615,1.365,8.4,2.053s5.5,1.591,8.212,2.535a148.758,148.758,0,0,1,15.7,6.262A107.727,107.727,0,0,1,355.01,181.1l13.714,8.623,50.76,31.945h-.051a65.45,65.45,0,0,1,7.432,12.318,66.294,66.294,0,0,1,4.558,13.057c2.31,8.8,1.139,17.45,1.129,25.519-.4,16.116-.749,30.179-1.026,41.768s-.493,20.694-.636,26.925c-.072,3.079-.123,5.482-.154,7.093v2.443Z" transform="translate(20.294 4.165)"/><path class="d" d="M568.175,159.366h-1.889l-5.451-.133-20.212-.4-68.149-1.242h-.133l-.082.092-9.546,11.692-27.264,33.433-3.079,3.808a20.971,20.971,0,0,0-4.6,12.985,21.188,21.188,0,0,0,1.653,8.386l3.079,7.185c3.973,9.238,7.185,16.629,9.423,21.8,1.119,2.546,1.991,4.537,2.587,5.913l.688,1.529c.154.349.246.513.246.513s-.062-.185-.2-.534-.37-.883-.636-1.55c-.585-1.386-1.417-3.387-2.494-5.954-2.2-5.132-5.358-12.657-9.238-21.864-1.766-4.65-4.876-9.526-4.66-15.48a20.963,20.963,0,0,1,2.053-8.735,21.473,21.473,0,0,1,2.5-3.993l3.08-3.8c8.4-10.265,17.615-21.556,27.294-33.4l9.526-11.61-.205.092,68.139,1.027,20.222.246h7.339Z" transform="translate(-303.496 4.176)"/><path class="d" d="M372.194,247.9a3.96,3.96,0,0,1-.811-.123,5.7,5.7,0,0,1-2.166-.852,5.563,5.563,0,0,1-2.186-2.864,6.157,6.157,0,0,1-.287-2.258,5.656,5.656,0,0,1,.636-2.443,5.461,5.461,0,0,1,4.732-2.874H394.89a5.369,5.369,0,0,1,5.328,4.763,5.954,5.954,0,0,1-.657,3.624,5.41,5.41,0,0,1-2.618,2.34,8.345,8.345,0,0,1-3.418.411h-9.392l-8.736.082h-2.371a5.266,5.266,0,0,0-.831.051,4.034,4.034,0,0,0,.832,0l2.371.051,8.736.082H395.3a5.861,5.861,0,0,0,4.712-2.956,6.57,6.57,0,0,0,.729-3.931,5.9,5.9,0,0,0-5.851-5.245H372.1a5.831,5.831,0,0,0-5.05,3.141,5.964,5.964,0,0,0-.647,2.618,6.55,6.55,0,0,0,.339,2.361,5.687,5.687,0,0,0,2.361,2.936,5.594,5.594,0,0,0,2.258.79A3.2,3.2,0,0,0,372.194,247.9Z" transform="translate(-73.118 6.247)"/><path class="d" d="M520.124,247.9a3.959,3.959,0,0,1-.811-.123,5.7,5.7,0,0,1-2.166-.852,5.564,5.564,0,0,1-2.186-2.864,6.157,6.157,0,0,1-.287-2.258,5.657,5.657,0,0,1,.636-2.443,5.461,5.461,0,0,1,4.732-2.874H542.82a5.368,5.368,0,0,1,5.328,4.763,5.952,5.952,0,0,1-.657,3.624,5.409,5.409,0,0,1-2.617,2.34,8.346,8.346,0,0,1-3.418.411h-9.392l-8.735.082h-2.371a5.269,5.269,0,0,0-.831.051,4.033,4.033,0,0,0,.831,0l2.371.051,8.735.082h11.168a5.862,5.862,0,0,0,4.712-2.956,6.569,6.569,0,0,0,.729-3.931,5.9,5.9,0,0,0-5.851-5.245H520.032a5.83,5.83,0,0,0-5.05,3.141,5.963,5.963,0,0,0-.647,2.618,6.548,6.548,0,0,0,.339,2.361,5.687,5.687,0,0,0,2.361,2.936,5.6,5.6,0,0,0,2.258.79A3.2,3.2,0,0,0,520.124,247.9Z" transform="translate(-372.897 6.247)"/><path class="f" d="M635.525,223.45h30.384a11.2,11.2,0,0,1,9.916,5.994h0a11.23,11.23,0,0,1,.339,9.741l-11.918,27.058-30.415-.3S627.354,231.641,635.525,223.45Z" transform="translate(-621.455 5.92)"/><path class="d" d="M555.889,221.4l-156.777-2.884-102.034-1.878-33.648-19.421a5.235,5.235,0,0,1-1.55-7.688l20.951-27.52a11.63,11.63,0,0,1,9.177-4.588l114.126-.934s42.969-2.494,76.823,16.424C518.6,192.944,555.889,221.4,555.889,221.4Z" transform="translate(-119.837 4.143)"/><path class="l" d="M237.81,159.25s-7.853,3.582-2.741,6.908,84.542,53.378,84.542,53.378l18.261-8.191C305.527,193.268,272.864,175.766,237.81,159.25Z" transform="translate(126.388 4.219)"/><path class="d" d="M67.9,219.22s.164.051.493.123l1.447.308,5.574,1.16c4.845.965,11.866,2.31,20.53,3.808,17.45,3,41.594,6.487,68.457,8.818,6.724.585,13.283,1.027,19.627,1.478s12.462.8,18.272,1.334c11.63,1.026,22.039,2.7,30.5,5.225a86.163,86.163,0,0,1,19.226,8.017c2.186,1.15,3.736,2.279,4.845,2.956l1.252.8.431.257a4.4,4.4,0,0,0-.4-.308l-1.222-.831a56.75,56.75,0,0,0-4.8-3.079,84.173,84.173,0,0,0-19.226-8.212c-8.469-2.566-18.918-4.3-30.549-5.348-5.82-.544-11.948-.944-18.282-1.365s-12.9-.9-19.616-1.488c-26.853-2.32-51.027-5.759-68.447-8.653-8.715-1.447-15.736-2.741-20.6-3.644l-5.584-1.027-1.458-.267A4.38,4.38,0,0,0,67.9,219.22Z" transform="translate(375.532 5.808)"/><path class="d" d="M638.27,287.617c0,.144,10.45.267,23.332.267s23.343-.123,23.343-.267-10.45-.267-23.343-.267S638.27,287.473,638.27,287.617Z" transform="translate(-636.344 7.614)"/><path class="d" d="M240.84,313.6c0,.144,58.982.267,131.73.267s131.74-.123,131.74-.267-58.972-.267-131.74-.267S240.84,313.443,240.84,313.6Z" transform="translate(-47.749 8.302)"/><path class="d" d="M58.88,288.477c0,.144,8.345.267,18.631.267s18.621-.123,18.621-.267-8.335-.267-18.621-.267S58.88,288.333,58.88,288.477Z" transform="translate(547.211 7.636)"/><path class="l" d="M666.314,176.88s7,7.842,4.25,13.591-31.2,25.878-31.2,25.878l-20.643,3.88Z" transform="translate(-602.542 4.687)"/><path class="l" d="M539.668,163.22l4.64,50.124-83.064-2.371L427.77,191.521l21.669-28.3Z" transform="translate(-279.63 4.325)"/><path class="l" d="M424.407,215.914s-50.114-36.194-69.884-43.38c-19.083-6.949-29.029-8.684-46.952-9.238-17.132-.482-27.572,0-27.572,0l13.262,51.027Z" transform="translate(-8.044 4.321)"/><path d="M314.813,215.147h0a8.777,8.777,0,0,0-4.475-7.647l-11.517-6.467a21.875,21.875,0,0,0-10.747-2.813h0a21.955,21.955,0,0,0-6.836,1.088,12.472,12.472,0,0,0-8.386,11.456h0a12.677,12.677,0,0,0,12.677,13.17h20.53a8.777,8.777,0,0,0,8.756-8.787Z" transform="translate(108.901 5.252)"/><path d="M315.182,215.155a6.955,6.955,0,0,1-.133,1.119,8.777,8.777,0,0,1-1.026,3.008,9.023,9.023,0,0,1-3.531,3.47,8.683,8.683,0,0,1-2.956.934c-1.088.123-2.3,0-3.541.062L286.43,223.7a13.344,13.344,0,0,1-4.886-.8,12.544,12.544,0,0,1-7.278-7.185,12.769,12.769,0,0,1-.76-5.43,12.41,12.41,0,0,1,5.184-9.238,13.2,13.2,0,0,1,4.753-2,21.25,21.25,0,0,1,4.968-.585,21.557,21.557,0,0,1,9.013,1.93c1.324.585,2.535,1.334,3.736,1.981l3.428,1.909,5.9,3.275a8.653,8.653,0,0,1,3.5,3.49,8.909,8.909,0,0,1,1.027,3.008c.1.729.092,1.109.123,1.109a5.415,5.415,0,0,0,0-1.119,8.376,8.376,0,0,0-.944-3.079,8.89,8.89,0,0,0-3.562-3.644l-5.861-3.336-3.408-1.94c-1.191-.657-2.4-1.417-3.757-2.053a22.059,22.059,0,0,0-9.238-2.053,21.7,21.7,0,0,0-5.132.585,13.879,13.879,0,0,0-4.948,2.053,13,13,0,0,0-5.41,9.577,13.211,13.211,0,0,0,.8,5.666,12.975,12.975,0,0,0,7.6,7.493,13.56,13.56,0,0,0,5.061.821l17.563-.062a33.971,33.971,0,0,0,3.582-.1,8.879,8.879,0,0,0,3.079-1.027,9.238,9.238,0,0,0,3.572-3.644,8.581,8.581,0,0,0,.934-3.08A6.72,6.72,0,0,0,315.182,215.155Z" transform="translate(108.531 5.244)"/><path class="k" d="M494.8,347.344v-.719c0-.472-.072-1.18-.133-2.053s-.164-2.053-.226-3.387-.1-2.884-.164-4.63,0-3.675,0-5.8a59.517,59.517,0,0,1,.441-6.878,88.974,88.974,0,0,1,3.007-16.568,73.291,73.291,0,0,1,3.264-9.187,61.193,61.193,0,0,1,4.958-9.331A63.581,63.581,0,0,1,522,272.04,75.9,75.9,0,0,1,545.013,260.7c8.561-2.628,17.882-3.582,27.366-3.644a89.572,89.572,0,0,1,27.3,3.973,75.969,75.969,0,0,1,12.133,5.04,69.671,69.671,0,0,1,10.552,6.888,88.122,88.122,0,0,1,16.26,16.67,66.339,66.339,0,0,1,5.4,9.074,89.148,89.148,0,0,1,3.716,9.023,107.329,107.329,0,0,1,5.923,28.8c.164,3.48.154,6.159.062,8.017-.051.9-.092,1.6-.123,2.053a4.361,4.361,0,0,0,0,.719,4.534,4.534,0,0,1,.082-.708c.082-.462.092-1.18.174-2.053a79.369,79.369,0,0,0,0-8.037,105.73,105.73,0,0,0-5.779-28.916,89.709,89.709,0,0,0-3.726-9.074,64.582,64.582,0,0,0-5.41-9.156,88.4,88.4,0,0,0-16.311-16.8,71.023,71.023,0,0,0-10.624-6.96,76.849,76.849,0,0,0-12.226-5.061,90.064,90.064,0,0,0-27.469-4c-9.526.062-18.888,1.026-27.52,3.675a76.1,76.1,0,0,0-23.158,11.456,69.623,69.623,0,0,0-9.074,7.955,55.433,55.433,0,0,0-7.052,8.951,60.562,60.562,0,0,0-4.958,9.4,74.04,74.04,0,0,0-3.264,9.238,88.507,88.507,0,0,0-2.895,16.588c-.277,2.474-.277,4.783-.4,6.908s0,4.106,0,5.81.144,3.285.205,4.629.205,2.474.277,3.387.154,1.591.2,2.053A4.425,4.425,0,0,0,494.8,347.344Z" transform="translate(-457.209 6.797)"/><path class="k" d="M316.11,219.72h.934l2.669.051,9.854.185c8.3.154,19.791.462,32.478.8s24.174.6,32.489.657h12.523l-2.669-.062-9.844-.174c-8.315-.154-19.8-.462-32.489-.811s-24.174-.585-32.489-.647H316.346C316.182,219.7,316.11,219.71,316.11,219.72Z" transform="translate(-28.695 5.821)"/><path class="k" d="M374.84,234.768a76.9,76.9,0,0,0,8.992.267,76.9,76.9,0,0,0,8.992-.267,74.292,74.292,0,0,0-8.992-.267A74.289,74.289,0,0,0,374.84,234.768Z" transform="translate(-73.813 6.212)"/><path class="k" d="M346.8,181.24c-.051.144,11.107,4.794,24.934,10.388s25.077,10.019,25.139,9.885-11.107-4.783-24.944-10.388S346.851,181.107,346.8,181.24Z" transform="translate(-49.079 4.802)"/><path class="k" d="M327.08,184.66c-.062.133,10.573,4.814,23.733,10.46s23.9,10.1,23.958,9.967-10.573-4.825-23.743-10.46S327.131,184.527,327.08,184.66Z" transform="translate(-6.735 4.893)"/><path class="k" d="M464.53,179.35c-.062.144,11.107,4.783,24.934,10.388s25.077,10.019,25.129,9.885-11.107-4.783-24.934-10.388S464.581,179.217,464.53,179.35Z" transform="translate(-287.648 4.752)"/><path class="k" d="M444.8,182.77c-.051.133,10.573,4.814,23.743,10.46s23.9,10.1,23.958,9.967-10.573-4.825-23.743-10.46S444.862,182.637,444.8,182.77Z" transform="translate(-245.304 4.843)"/><path class="k" d="M418.81,219.713c0,.154,22.2.4,49.59.565s49.59.174,49.59,0-22.193-.4-49.59-.565S418.81,219.569,418.81,219.713Z" transform="translate(-244.114 5.818)"/><path class="k" d="M512.28,233.924c0,.154,6.221.328,13.909.4s13.909,0,13.909-.144-6.221-.318-13.909-.39S512.28,233.781,512.28,233.924Z" transform="translate(-362.169 6.194)"/><path class="k" d="M71.37,226.53a2.259,2.259,0,0,0,.606.113l1.735.226c.76.092,1.683.205,2.751.38s2.289.328,3.624.6c2.679.462,5.841,1.17,9.321,2.053a101.172,101.172,0,0,1,11.1,3.665,116.925,116.925,0,0,1,10.634,4.866c3.182,1.683,5.984,3.316,8.212,4.794,1.16.708,2.166,1.427,3.079,2.053s1.663,1.139,2.279,1.591l1.427,1.026a2.115,2.115,0,0,0,.523.318,2.822,2.822,0,0,0-.462-.411l-1.365-1.088c-.6-.482-1.334-1.026-2.227-1.673s-1.878-1.365-3.028-2.053c-2.258-1.519-5.05-3.2-8.212-4.917a101.16,101.16,0,0,0-21.844-8.561c-3.49-.9-6.682-1.571-9.382-1.991-1.345-.246-2.566-.38-3.644-.524s-2.053-.226-2.772-.287l-1.745-.123a2.165,2.165,0,0,0-.606-.051Z" transform="translate(503.864 6.002)"/><path class="k" d="M273.924,203.012a13.149,13.149,0,0,1,1.027-.955,6.744,6.744,0,0,1,3.387-1.376,14.791,14.791,0,0,1,5.471.6,41.168,41.168,0,0,1,6.467,2.2,42.137,42.137,0,0,1,10.511,6.539c2.443,2.053,3.737,3.562,3.808,3.49a6.354,6.354,0,0,0-.862-1.1,34.993,34.993,0,0,0-2.7-2.679,39.129,39.129,0,0,0-10.542-6.744,40.264,40.264,0,0,0-6.559-2.186,14.546,14.546,0,0,0-5.646-.482,6.672,6.672,0,0,0-3.47,1.581,4.436,4.436,0,0,0-.688.79C273.955,202.889,273.9,203,273.924,203.012Z" transform="translate(118.009 5.305)"/><path class="d" d="M519.72,177.041a16.793,16.793,0,0,0,4.373.441,26.053,26.053,0,0,0,5.133-.636,44.866,44.866,0,0,0,6.529-2.053c2.371-.893,4.907-2.053,7.637-3.192l4.26-1.725c1.468-.585,3.008-1.088,4.578-1.653a176.319,176.319,0,0,1,20.92-5.707,240.537,240.537,0,0,1,39.1-4.866c2.525-.133,4.8-.144,6.806-.2h5.132l3.244.072h1.139a1.37,1.37,0,0,0-.288,0h-.842l-3.254-.174-5.132-.092c-2.053,0-4.291,0-6.816.113a228.591,228.591,0,0,0-39.2,4.722,175.586,175.586,0,0,0-20.971,5.759c-1.571.585-3.08,1.1-4.589,1.694l-4.26,1.745c-2.73,1.191-5.245,2.34-7.6,3.254a48.246,48.246,0,0,1-6.457,2.053,28.062,28.062,0,0,1-5.071.719,21.5,21.5,0,0,1-3.234-.123l-.842-.1a.883.883,0,0,0-.3-.051Z" transform="translate(-458.277 4.167)"/><path class="m" d="M73.781,179.279c4.106-22.46,6.857-25.909,9.187-33.638s6.005-12.749,10.593-14.515c3.079-1.191,18.538-6.765,23.928-4.917A67.05,67.05,0,0,1,132.4,133.7a19.966,19.966,0,0,1,7.781,9.947l8.212,23.168L133.965,181.24l-7.247-15.4-7.863,18.426,1.16,18.631-45.1,12.133C70.835,208.473,71.451,192.029,73.781,179.279Z" transform="translate(481.539 3.334)"/><g class="n" transform="translate(567.033 158.08)"><path d="M103.6,154c1.991,11.692,2.31,13.344,4.3,25,.688,4.014,2.679,10.265,5.543,13.17,2.115,2.145,4.188,4.219,7.124,4.917,2.741.647,6.888.719,9.464-.421s4.763-6.159,3.706-8.725c-3.829.811-5.009,2.053-8.3,0-2.884-1.827-6.96-5.872-8.52-8.9-6.59-12.739-8.4-13.19-13.344-25.036" transform="translate(-103.565 -154)"/></g><path class="d" d="M88.426,176.65a29.461,29.461,0,0,0,1.991-3.079l4.64-7.586c1.827-2.864,3.47-5.461,4.763-7.5a28.038,28.038,0,0,0,1.92-3.151,3.224,3.224,0,0,0-.647.76c-.39.5-.934,1.252-1.581,2.186-1.314,1.858-3.079,4.476-4.907,7.432s-3.418,5.677-4.517,7.668c-.554,1.026-1.027,1.817-1.273,2.381A5.4,5.4,0,0,0,88.426,176.65Z" transform="translate(511.28 4.116)"/><path class="d" d="M105.7,196.659a4.455,4.455,0,0,0,1.026.4,10.842,10.842,0,0,0,1.283.359c.5.113,1.078.267,1.725.359a28.5,28.5,0,0,0,4.558.411,29.409,29.409,0,0,0,11-2.053,28.249,28.249,0,0,0,4.106-2,17.031,17.031,0,0,0,1.478-.944,12.024,12.024,0,0,0,1.027-.78c.565-.462.873-.719.842-.749s-1.324.914-3.582,2.145a32.385,32.385,0,0,1-4.106,1.868,34.532,34.532,0,0,1-5.327,1.458,33.271,33.271,0,0,1-5.5.513,32.068,32.068,0,0,1-4.506-.287C107.269,197.049,105.749,196.567,105.7,196.659Z" transform="translate(462.536 5.078)"/><path class="o" d="M83.65,162.867c.072.411,4.927,10.06,4.927,10.06l22.87-12.051,2.33-9.854a6.159,6.159,0,0,1,7.411-4.547l6.744,2.761a1.807,1.807,0,0,1,1.109,1.3c.092.5,0,1.026-.893.914-1.673-.123-5.132-.5-5.132-.5l1.591,5.615a5.964,5.964,0,0,1-.452,4.4l-1.026,1.95-2.248,3.6h0s-22.224,22.829-34.706,24.318c-7.5.893-16-20.14-16-20.14Z" transform="translate(502.68 3.877)"/><path class="p" d="M79.842,151.227a2.407,2.407,0,0,0-.554-.493,3.08,3.08,0,0,0-1.735-.534,1.827,1.827,0,0,0-1.529,1.027c-.216.462-.072.78,0,.76s0-.3.246-.647a1.745,1.745,0,0,1,1.345-.76,3.356,3.356,0,0,1,1.591.4C79.565,151.134,79.812,151.268,79.842,151.227Z" transform="translate(546.019 3.98)"/><path class="p" d="M75.525,154.654s.154-.185.37-.452a2.6,2.6,0,0,1,1.027-.79,2.7,2.7,0,0,1,1.314-.154c.349.051.554.133.585.082s-.164-.2-.534-.308a2.351,2.351,0,0,0-1.488.062,2.258,2.258,0,0,0-1.129.975C75.5,154.408,75.484,154.644,75.525,154.654Z" transform="translate(547.451 4.052)"/><path class="q" d="M129.568,132.77l6.159,29.347-16.424,9.9L113,153.978S115.607,132.052,129.568,132.77Z" transform="translate(452.062 3.517)"/><path class="a" d="M82.6,133.28a1.941,1.941,0,0,0,.411.257l1.252.657c1.088.565,2.679,1.334,4.691,2.227a68.7,68.7,0,0,0,16.311,5.132,40.691,40.691,0,0,0,17.019-.565,29.123,29.123,0,0,0,4.9-1.755,11.49,11.49,0,0,0,1.263-.636,2.14,2.14,0,0,0,.411-.267,17.77,17.77,0,0,0-1.755.708,33.078,33.078,0,0,1-4.907,1.581,42.313,42.313,0,0,1-16.876.421A74.729,74.729,0,0,1,89.1,136.072c-2.053-.842-3.624-1.56-4.742-2.053a11.908,11.908,0,0,0-1.755-.739Z" transform="translate(490.14 3.531)"/><path class="a" d="M80.01,136.43a3.933,3.933,0,0,0,.452.339c.308.205.821.523,1.365.873a24.989,24.989,0,0,0,2.217,1.283c.883.472,1.868,1.027,3.018,1.54l1.8.831c.626.277,1.3.513,1.991.79,1.365.575,2.874,1.027,4.465,1.55a61.8,61.8,0,0,0,21.4,2.535c1.663-.133,3.244-.226,4.7-.472.739-.1,1.447-.174,2.125-.308l1.93-.38c1.242-.216,2.34-.544,3.305-.79a25.324,25.324,0,0,0,2.423-.739l1.529-.524a1.908,1.908,0,0,0,.513-.226,3.668,3.668,0,0,0-.554.123l-1.55.431c-.667.205-1.5.431-2.464.647s-2.053.513-3.305.708l-1.93.349c-.667.113-1.376.175-2.053.277-1.458.216-3.079.287-4.671.411a64.475,64.475,0,0,1-21.248-2.515c-1.571-.5-3.079-.944-4.445-1.488-.688-.267-1.355-.493-1.981-.77l-1.8-.78c-1.16-.472-2.156-1.026-3.079-1.458a24.59,24.59,0,0,1-2.248-1.211l-1.406-.78a2.875,2.875,0,0,0-.5-.246Z" transform="translate(488.408 3.615)"/><path class="d" d="M112.03,172.028a7.935,7.935,0,0,0,1.334-.678l3.613-2.053,12.318-7.114.154-.092v-.174c-.441-2.2-.914-4.547-1.406-6.98-.749-3.644-1.458-7.124-2.053-10.265-.339-1.581-.616-3.079-.924-4.5a16.055,16.055,0,0,0-1.324-3.819,7.637,7.637,0,0,0-4.239-3.88,5.132,5.132,0,0,0-1.571-.267,1.807,1.807,0,0,0-.544.062,6.775,6.775,0,0,1,6.026,4.26,16.628,16.628,0,0,1,1.222,3.736c.267,1.417.565,2.915.872,4.5.636,3.172,1.334,6.652,2.053,10.265.493,2.423,1.027,4.773,1.417,6.97l.123-.277c-4.886,2.915-9.136,5.44-12.246,7.278l-3.541,2.166a10.115,10.115,0,0,0-1.283.862Z" transform="translate(459.334 3.503)"/><path class="d" d="M129.353,152.56a11.887,11.887,0,0,0,.082,2.73,42.4,42.4,0,0,0,3.357,12.749,11.5,11.5,0,0,0,1.273,2.412,16.574,16.574,0,0,0-.924-2.556,61.508,61.508,0,0,1-3.326-12.646A17.6,17.6,0,0,0,129.353,152.56Z" transform="translate(436.982 4.042)"/><path class="l" d="M46.292,311.58l.144,15.675s15.983,5.071,16.3,7.966L32.4,336.647l-1.283-24.41Z" transform="translate(609.102 8.255)"/><path class="b" d="M55.523,326a1.242,1.242,0,0,0-.79,1.458,1.191,1.191,0,0,0,1.437.79,1.283,1.283,0,0,0,.821-1.54,1.242,1.242,0,0,0-1.581-.667" transform="translate(590.601 8.637)"/><path class="b" d="M31.044,336.076v-2.464l29.132-.462s1.386.523,1.273,1.478Z" transform="translate(610.461 8.827)"/><path class="d" d="M49.2,326.673c0,.154-.739.257-1.447.77s-1.026,1.15-1.2,1.1,0-.924.9-1.529S49.229,326.54,49.2,326.673Z" transform="translate(606.862 8.652)"/><path class="d" d="M45.222,327.811c0,.144-.585.421-1.027,1.078s-.585,1.324-.739,1.324-.277-.842.328-1.632S45.211,327.668,45.222,327.811Z" transform="translate(614.083 8.684)"/><path class="d" d="M40.522,331.507c-.133,0-.37-.7,0-1.519s1.026-1.191,1.088-1.026-.339.575-.606,1.263S40.676,331.486,40.522,331.507Z" transform="translate(620.774 8.715)"/><path class="d" d="M50.064,323.212c0,.133-.739,0-1.581.062s-1.478.39-1.56.267.524-.677,1.509-.78S50.136,323.089,50.064,323.212Z" transform="translate(605.555 8.551)"/><g class="r" transform="translate(640.386 322.936)"><path d="M62.108,314.6l.041,2.792-14.936.575-.144-2.5Z" transform="translate(-47.07 -314.6)"/></g><path class="d" d="M51.7,320.178a2.762,2.762,0,0,1-1.519.062,6.528,6.528,0,0,1-1.612-.411,7.839,7.839,0,0,1-.9-.421,1.786,1.786,0,0,1-.472-.339.626.626,0,0,1-.1-.78.78.78,0,0,1,.626-.37,1.663,1.663,0,0,1,.575.051,4.588,4.588,0,0,1,.965.277,5.339,5.339,0,0,1,1.447.852c.739.616,1.026,1.16.955,1.191s-.431-.39-1.17-.9a6.553,6.553,0,0,0-1.4-.7,5.85,5.85,0,0,0-.883-.226c-.328-.072-.606-.062-.677.092s0,.072,0,.164a1.459,1.459,0,0,0,.349.246,8.913,8.913,0,0,0,.821.421,8.731,8.731,0,0,0,1.5.493,10.55,10.55,0,0,1,1.5.3Z" transform="translate(603.836 8.423)"/><path class="d" d="M45.884,320.466a2.474,2.474,0,0,1-.472-1.458,5.133,5.133,0,0,1,.133-1.673,6.158,6.158,0,0,1,.339-.944,1.273,1.273,0,0,1,.934-.811.708.708,0,0,1,.657.39,1.95,1.95,0,0,1,.185.554,3.485,3.485,0,0,1-.524,2.628c-.554.811-1.17,1.027-1.18.975a6.154,6.154,0,0,0,.862-1.17,3.48,3.48,0,0,0,.421-1.447,3.583,3.583,0,0,0-.072-.873c-.062-.328-.2-.585-.318-.544a1.08,1.08,0,0,0-.5.523,5.134,5.134,0,0,0-.339.842,5.533,5.533,0,0,0-.226,1.54C45.782,319.891,45.966,320.435,45.884,320.466Z" transform="translate(609.458 8.361)"/><path class="d" d="M32.237,201.606s47.434-19.893,62.123-20.745c9.238-.534,16.178,5.389,14.925,14.915-.626,4.763-13.734,60.563-13.734,60.563l-20-9.126,9.6-38.586L46.146,227.566Z" transform="translate(561.258 4.791)"/><path class="l" d="M56.1,198.4c.154.133-1.427,2.166-3.079,4.845s-2.772,4.989-2.956,4.907.667-2.546,2.361-5.276S55.967,198.277,56.1,198.4Z" transform="translate(596.306 5.257)"/><path class="l" d="M56.54,200.56c.1.174-2.289,1.694-5.132,3.767s-4.979,3.89-5.132,3.747,1.848-2.217,4.7-4.311S56.458,200.406,56.54,200.56Z" transform="translate(599.746 5.314)"/><path class="d" d="M43.53,213.039s5.974,7.688,11.661,9.793c7.185,2.638,60.009,27.582,60.009,27.582s9.587,71.218,8.828,68.252l22.121-.534-2.4-65.6c-.3-8.407-7.021-18.046-14.258-22.337L80.545,201.07Z" transform="translate(512.95 5.328)"/><path class="l" d="M102.012,264.439a3.429,3.429,0,0,1-.092-.893c0-.667-.082-1.519-.133-2.587a88.619,88.619,0,0,0-.883-9.423A32.488,32.488,0,0,0,96.13,238.53a24.636,24.636,0,0,0-5.687-5.872,66.8,66.8,0,0,0-7.463-4.753c-10.645-6.1-19.842-12.318-26.627-16.578-3.387-2.156-6.159-3.88-8.048-5.05L46.1,204.923a4.508,4.508,0,0,1-.739-.5,3.9,3.9,0,0,1,.811.38c.524.277,1.293.688,2.269,1.252,1.961,1.1,4.753,2.751,8.212,4.855,6.867,4.106,16.106,10.265,26.689,16.424a65.179,65.179,0,0,1,7.576,4.814,25.119,25.119,0,0,1,5.81,6.056,32.447,32.447,0,0,1,4.732,13.283,73.908,73.908,0,0,1,.657,9.505v2.535a5.461,5.461,0,0,1-.1.914Z" transform="translate(555.105 5.416)"/><path class="l" d="M120.232,220.419a20.044,20.044,0,0,1,1.355-1.827,13.19,13.19,0,0,0,2.053-10.265,16.607,16.607,0,0,1-.534-2.207,4.855,4.855,0,0,1,1.027,2.053,11.794,11.794,0,0,1-2.156,10.665,4.917,4.917,0,0,1-1.745,1.581Z" transform="translate(455.772 5.461)"/><path class="l" d="M116.029,318.067a1.753,1.753,0,0,1-.062-.37,9.769,9.769,0,0,0-.133-1.026c-.113-1.026-.257-2.392-.441-4.106-.37-3.665-.873-8.859-1.509-15.264-.308-3.233-.636-6.765-1.026-10.552s-.749-7.842-1.026-12.1a130.537,130.537,0,0,0-1.509-13.344,54.528,54.528,0,0,0-4.106-13.693,45.812,45.812,0,0,0-7.976-11.774,72.309,72.309,0,0,0-10.019-8.828,203.939,203.939,0,0,0-19.257-12.072c-5.615-3.223-10.09-5.974-13.067-8.048-1.488-1.026-2.628-1.858-3.377-2.443l-.852-.677q-.287-.226-.277-.246a1.722,1.722,0,0,1,.318.2l.893.616c.78.544,1.94,1.345,3.449,2.33,3.018,2,7.514,4.671,13.16,7.842A196.732,196.732,0,0,1,88.6,226.431a72.162,72.162,0,0,1,10.132,8.879,46.459,46.459,0,0,1,8.212,11.948,55.153,55.153,0,0,1,4.106,13.878c.78,4.609,1.17,9.105,1.488,13.344s.636,8.325.975,12.113.636,7.319.914,10.542c.534,6.416,1.026,11.62,1.283,15.285.133,1.766.236,3.162.308,4.157a4.809,4.809,0,0,0,.072,1.088,1.263,1.263,0,0,1-.062.4Z" transform="translate(534.94 5.392)"/><path class="d" d="M73.943,91.146a8.633,8.633,0,0,1,9.885-5.317,10.727,10.727,0,0,0,2.751.6,20.631,20.631,0,0,0,3.346-.883,5.02,5.02,0,0,1,5.666,3.665,6.826,6.826,0,0,1,5.635,1.119,4.445,4.445,0,0,1,1.324,5.317c-.4.749-1.026,1.345-1.427,2.115-.606,1.263-.328,2.782-.749,4.106a5.564,5.564,0,0,1-4.783,3.439,16.3,16.3,0,0,1-6.159-.883" transform="translate(524.942 2.265)"/><path class="o" d="M99.434,131.567c.267-1.981.431-3.377.431-3.377s6.621,0,9.238-8.212c1.324-4.106,2.207-10.963,2.741-16.619a8.992,8.992,0,0,0-8.386-9.865L85.884,92.57,85.5,95.3l-4.629,33.782a9.372,9.372,0,0,0,8.068,10.573h0A9.372,9.372,0,0,0,99.434,131.567Z" transform="translate(508.966 2.453)"/><path class="d" d="M85.376,107.8a1.1,1.1,0,0,1-1.211.924,1.027,1.027,0,0,1-.965-1.15,1.1,1.1,0,0,1,1.211-.924,1.027,1.027,0,0,1,.965,1.15Z" transform="translate(533.002 2.826)"/><path class="d" d="M87.054,106.329c-.154.123-.873-.616-2.053-.79s-2.053.257-2.207.092.123-.3.534-.513a3.08,3.08,0,0,1,1.8-.257,2.915,2.915,0,0,1,1.591.811C87.054,106.031,87.136,106.278,87.054,106.329Z" transform="translate(531.755 2.777)"/><path class="d" d="M96.116,106.03a1.1,1.1,0,0,1-1.222.924,1.026,1.026,0,0,1-.955-1.15,1.1,1.1,0,0,1,1.211-.924,1.026,1.026,0,0,1,.965,1.15Z" transform="translate(511.237 2.779)"/><path class="d" d="M98.2,104.779c-.154.113-.883-.616-2.053-.8s-2.053.267-2.207.1.133-.308.544-.513a2.926,2.926,0,0,1,1.8-.257,2.843,2.843,0,0,1,1.591.811C98.188,104.451,98.27,104.728,98.2,104.779Z" transform="translate(509.175 2.736)"/><path class="d" d="M88.065,114.019a7.78,7.78,0,0,1,1.94,0c.3,0,.585,0,.667-.2a1.56,1.56,0,0,0,0-.9l-.524-2.4a37.682,37.682,0,0,1-1.027-6.159,40.259,40.259,0,0,1,1.53,6.159c.164.842.318,1.642.472,2.4a1.7,1.7,0,0,1,0,1.191.749.749,0,0,1-.554.349,1.683,1.683,0,0,1-.513,0A7.319,7.319,0,0,1,88.065,114.019Z" transform="translate(522.152 2.765)"/><path class="p" d="M103.278,127.394A21.649,21.649,0,0,1,92.5,122.6s1.817,6.21,10.357,6.754Z" transform="translate(505.553 3.248)"/><path class="d" d="M91.79,114c.185,0,0,1.283.924,2.351s2.3,1.139,2.279,1.314-.339.2-.9.123a3.192,3.192,0,0,1-1.909-1.026,2.741,2.741,0,0,1-.7-1.95C91.513,114.287,91.708,114,91.79,114Z" transform="translate(514.885 3.021)"/><path class="d" d="M98.286,100.383c-.174.3-1.3,0-2.689-.082s-2.546.144-2.689-.174c0-.144.185-.411.677-.647a4.393,4.393,0,0,1,2.053-.37,4.506,4.506,0,0,1,2.053.565C98.142,99.962,98.357,100.25,98.286,100.383Z" transform="translate(510.115 2.626)"/><path class="d" d="M86.548,103.04c-.246.236-1.026-.164-1.961-.328s-1.807-.1-1.95-.411c-.062-.144.113-.39.5-.585a2.9,2.9,0,0,1,3.151.606C86.589,102.588,86.651,102.876,86.548,103.04Z" transform="translate(532.374 2.689)"/><path class="d" d="M108.268,99.72s-4.65,1.56-9.988-2c-3.511-2.34-7.75-3.808-8.807-3.182s-1.755,4.465-5.6,5.132c0,0-.677,7.391-3.572,6.754-2.053-.452-.862-8.6,0-13.252a4.044,4.044,0,0,1,3.829-3.305l5.42-.205L96.3,91.538l7.247,1.981,5.512,2.289Z" transform="translate(513.467 2.376)"/><path class="o" d="M112.062,103.087c-.113-.082-4.588-2.443-5.42,2.453s4.25,4.722,4.28,4.578S112.062,103.087,112.062,103.087Z" transform="translate(482.347 2.714)"/><path class="p" d="M110.554,107.974a.588.588,0,0,0-.246.082.821.821,0,0,1-.636-.092,2.125,2.125,0,0,1-.657-2.053,2.8,2.8,0,0,1,.441-1.18,1.026,1.026,0,0,1,.76-.554.452.452,0,0,1,.462.328v.246c0,.01.113-.062.113-.267a.565.565,0,0,0-.144-.339.626.626,0,0,0-.452-.205,1.191,1.191,0,0,0-1.026.606,2.854,2.854,0,0,0-.534,1.314,2.238,2.238,0,0,0,.893,2.32.934.934,0,0,0,.8,0C110.534,108.108,110.575,107.984,110.554,107.974Z" transform="translate(481.535 2.754)"/><path class="l" d="M100.218,87.371a6.272,6.272,0,0,1-.513.657,4.363,4.363,0,0,1-1.858,1.191,6.159,6.159,0,0,1-3.254.144A28.073,28.073,0,0,1,90.641,88.1a10.82,10.82,0,0,0-4.2-.749,4.588,4.588,0,0,0-3.182,1.437,3.408,3.408,0,0,0-1.027,2.145,1.437,1.437,0,0,0,.144.852,7.914,7.914,0,0,1,.062-.831,3.428,3.428,0,0,1,1.026-1.9,4.373,4.373,0,0,1,2.946-1.211,10.738,10.738,0,0,1,3.994.77,26.8,26.8,0,0,0,4.034,1.232,6.221,6.221,0,0,0,3.48-.277,4.106,4.106,0,0,0,1.889-1.417A1.53,1.53,0,0,0,100.218,87.371Z" transform="translate(519.166 2.314)"/><path class="l" d="M75.96,91.986a4.752,4.752,0,0,1,.76-.616,4.5,4.5,0,0,1,2.464-.729,7.976,7.976,0,0,1,3.736.914,38.718,38.718,0,0,0,4.455,2.053,11.107,11.107,0,0,0,8.766-.965,9.639,9.639,0,0,0,2.166-1.622,3.079,3.079,0,0,0,.616-.78,19.431,19.431,0,0,1-2.956,2.1,11.189,11.189,0,0,1-8.428.78,45.216,45.216,0,0,1-4.414-2.053,8.017,8.017,0,0,0-3.962-.842,4.434,4.434,0,0,0-2.566.944A1.817,1.817,0,0,0,75.96,91.986Z" transform="translate(526.887 2.391)"/><path class="o" d="M55.756,173.725,79.591,153.4l7.863,1.776S79.17,172.4,73.175,178.713c0,0-5.923,7.935-15.7,4.506S55.756,173.725,55.756,173.725Z" transform="translate(562.294 4.064)"/><path class="l" d="M59.948,131.61H70.08a2.566,2.566,0,0,1,2.351,3.223L62.248,154.686a2.32,2.32,0,0,1-2.053,1.252H47.877a1.755,1.755,0,0,1-1.345-2.607L56.355,133.9A4.034,4.034,0,0,1,59.948,131.61Z" transform="translate(583.733 3.487)"/><path class="d" d="M59.9,132.77H70.041a1.7,1.7,0,0,1,1.519,2.474l-9.947,19.411a2.32,2.32,0,0,1-2.053,1.252H47.345a1.026,1.026,0,0,1-.914-1.447l9.844-19.4A4.044,4.044,0,0,1,59.9,132.77Z" transform="translate(584.47 3.518)"/><path class="o" d="M56.392,140.69l6.159,2.464,1.324,4.968-2.967,7.391-10.9,1.591,3.192-3.264-.411-2.833s-3.079-.955-3.079-1.427.38-2.053.842-2.053a23.836,23.836,0,0,1,3.654,1.109s-3.778-2.987-3.665-3.47.5-1.7,1.263-1.837,6.836,2.73,6.836,2.73l1.026,2.258.862-3.6S55.017,143.154,56.392,140.69Z" transform="translate(588.88 3.728)"/><path class="p" d="M58.939,152.1a1.535,1.535,0,0,0,.216-.616,3.326,3.326,0,0,0-1.026-2.854c-.308-.267-.544-.37-.565-.339a7.534,7.534,0,0,1,1.139,1.745,6.857,6.857,0,0,1,.236,2.063Z" transform="translate(585.512 3.929)"/><path class="p" d="M62.464,151.173a12.225,12.225,0,0,1-.246-1.612,7.658,7.658,0,0,0-.308-1.8,2.731,2.731,0,0,0-.575-.955,2.689,2.689,0,0,0-1.026-.626c-1.468-.544-2.8-.975-3.767-1.283a8.809,8.809,0,0,0-1.6-.441,8.9,8.9,0,0,0,1.519.647c.955.37,2.289.842,3.736,1.365a2.74,2.74,0,0,1,.9.554,2.484,2.484,0,0,1,.513.842,7.884,7.884,0,0,1,.359,1.714,3.3,3.3,0,0,0,.493,1.591Z" transform="translate(584.922 3.828)"/><path class="p" d="M53.921,149.961a2.556,2.556,0,0,0,0-1.211c-.113-.657-.267-1.18-.359-1.16a2.556,2.556,0,0,0,0,1.211C53.675,149.458,53.829,149.982,53.921,149.961Z" transform="translate(594.882 3.911)"/><path class="f" d="M55.987,136.453a1.293,1.293,0,1,1-1.293-1.293,1.293,1.293,0,0,1,1.293,1.293Z" transform="translate(592.981 3.581)"/><path class="s" d="M22.762,327a12.523,12.523,0,0,0-7.473,6.344A22.008,22.008,0,0,0,13,343.065c-.205,6.5,2.484,13.478,5.656,19.154,6.067-3.911,8.489-11.928,9.475-16.075,1.54-6.539.359-19.319-5.369-19.144" transform="translate(661.702 8.664)"/><path class="s" d="M47.525,371.125a10.665,10.665,0,0,0-1.961-10.542,14.166,14.166,0,0,0-9.875-4.742c-1.735-.113-3.654.113-4.835,1.375a4.588,4.588,0,0,0-.739,4.578,9.156,9.156,0,0,0,2.905,3.829c4.239,3.6,9,6.313,14.5,5.5" transform="translate(625.042 9.427)"/><path class="d" d="M39.837,391.552a7.6,7.6,0,0,0,0-1.345c0-.944-.082-2.176-.133-3.644A37.488,37.488,0,0,0,37.65,374.7a22.891,22.891,0,0,0-6.878-9.834,15.56,15.56,0,0,0-3.079-1.95,8.542,8.542,0,0,0-.914-.38,1.128,1.128,0,0,0-.339-.1,24.72,24.72,0,0,1,4.106,2.689,23.753,23.753,0,0,1,6.693,9.741,40.29,40.29,0,0,1,2.135,11.764c.1,1.54.2,2.782.277,3.634a6.928,6.928,0,0,0,.185,1.293Z" transform="translate(636.774 9.603)"/><path class="d" d="M26.709,336.59a1.99,1.99,0,0,0-.154.565c-.082.421-.2.955-.328,1.632-.287,1.417-.677,3.48-1.129,6.026-.914,5.132-2.053,12.154-3.182,19.976s-1.94,14.935-2.474,20.089c-.267,2.566-.462,4.66-.585,6.1-.051.688-.092,1.232-.123,1.663a3.152,3.152,0,0,0,0,.585,2.659,2.659,0,0,0,.113-.575c.051-.431.123-.975.216-1.653.175-1.5.431-3.562.729-6.087.626-5.132,1.509-12.226,2.618-20.047s2.207-14.884,3.079-20c.4-2.5.739-4.558,1.026-6.046.1-.678.185-1.222.257-1.653a2.217,2.217,0,0,0-.062-.575Z" transform="translate(657.796 8.918)"/><path class="s" d="M0,376.268A24.985,24.985,0,0,1,16.13,360.122c1.93-.6,4.352-.821,5.635.739s.606,3.911-.39,5.666A21.341,21.341,0,0,1,.055,376.792" transform="translate(681.308 9.53)"/><path class="d" d="M26.681,365.89a6.535,6.535,0,0,0-1.211.339,12.373,12.373,0,0,0-1.4.493,19.222,19.222,0,0,0-1.786.8,20.527,20.527,0,0,0-2.053,1.139,24.308,24.308,0,0,0-2.269,1.519,27.717,27.717,0,0,0-4.506,4.332,26.908,26.908,0,0,0-3.336,5.3A25.6,25.6,0,0,0,9.1,382.345a20.976,20.976,0,0,0-.657,2.289,16.813,16.813,0,0,0-.349,1.9A11.855,11.855,0,0,0,7.917,388a7.339,7.339,0,0,0,0,1.263c.1,0,.185-1.786.9-4.568a23.006,23.006,0,0,1,.708-2.238,26.841,26.841,0,0,1,1.026-2.484,28.381,28.381,0,0,1,3.305-5.184,28.744,28.744,0,0,1,4.414-4.281,26.3,26.3,0,0,1,2.207-1.54,21.654,21.654,0,0,1,2.053-1.18C24.987,366.5,26.722,366,26.681,365.89Z" transform="translate(669.002 9.694)"/></g></svg>