<svg xmlns="http://www.w3.org/2000/svg" width="19.804" height="32" viewBox="0 0 19.804 32"><defs><style>.a{fill:#fff;}</style></defs><path class="a" d="M41.428,18.882h4.633V17.144H41.428Zm4.6.578h-4.6s-7.567,7.459-7.567,14.772c0,7.749,7.929,8.365,7.929,8.365a11.559,11.559,0,0,0,3.836,0s8.039-.942,8.039-8.327S46.027,19.461,46.027,19.461Zm.34,15.7a2.706,2.706,0,0,1-.757.945,3.3,3.3,0,0,1-1.118.57c-.054.016-.113.022-.168.036V38H43.166V36.862c-.014,0-.028,0-.042,0a4.974,4.974,0,0,1-.916-.079,5.558,5.558,0,0,1-.747-.193,3.23,3.23,0,0,1-.541-.237,1.536,1.536,0,0,1-.313-.219.543.543,0,0,1-.137-.276,2.618,2.618,0,0,1-.04-.519c0-.152,0-.279.015-.383a1.076,1.076,0,0,1,.048-.251.275.275,0,0,1,.087-.137.219.219,0,0,1,.128-.04.6.6,0,0,1,.291.121,4.876,4.876,0,0,0,.482.269,4.4,4.4,0,0,0,.7.27,3.358,3.358,0,0,0,.946.121,2.174,2.174,0,0,0,.632-.085,1.405,1.405,0,0,0,.475-.239,1.009,1.009,0,0,0,.3-.383,1.214,1.214,0,0,0,.1-.51.9.9,0,0,0-.177-.556A1.787,1.787,0,0,0,44,33.129a4.8,4.8,0,0,0-.643-.338c-.24-.106-.489-.218-.743-.334a6.562,6.562,0,0,1-.743-.4,3,3,0,0,1-.644-.536,2.578,2.578,0,0,1-.461-.74,2.666,2.666,0,0,1-.175-1.022,2.709,2.709,0,0,1,.253-1.2,2.476,2.476,0,0,1,.684-.86,2.933,2.933,0,0,1,1.015-.511,4.125,4.125,0,0,1,.62-.127V25.837h1.158v1.218c.047.006.093,0,.139.011a4.589,4.589,0,0,1,.632.139,3.487,3.487,0,0,1,.522.2,1.185,1.185,0,0,1,.3.183.536.536,0,0,1,.1.124.751.751,0,0,1,.044.137,1.315,1.315,0,0,1,.025.214c0,.085.007.192.007.319,0,.143,0,.264-.012.363a1.279,1.279,0,0,1-.037.243.281.281,0,0,1-.073.14.179.179,0,0,1-.128.044.616.616,0,0,1-.258-.1c-.118-.069-.263-.143-.432-.223a4.343,4.343,0,0,0-.6-.22,2.657,2.657,0,0,0-.743-.1,1.763,1.763,0,0,0-.552.077,1.147,1.147,0,0,0-.395.212.845.845,0,0,0-.234.326,1.052,1.052,0,0,0-.077.4.9.9,0,0,0,.172.549,1.643,1.643,0,0,0,.464.412,4.713,4.713,0,0,0,.66.338q.367.159.75.334a7.683,7.683,0,0,1,.75.4,2.986,2.986,0,0,1,.656.537,2.515,2.515,0,0,1,.463.735,2.577,2.577,0,0,1,.177,1,2.956,2.956,0,0,1-.281,1.313Zm-.377-18.6,2.353-5.793A5.641,5.641,0,0,1,45.99,12c-.869,0-2.246-1.2-2.246-1.2A5.694,5.694,0,0,1,41.391,12a5.348,5.348,0,0,1-2.281-1.159l2.39,5.72Z" transform="translate(-33.861 -10.771)"/></svg>