<svg xmlns="http://www.w3.org/2000/svg" width="21.61" height="32.334" viewBox="0 0 21.61 32.334"><defs><style>.a{fill:#fff;}</style></defs><g transform="translate(-12 -2)"><path class="a" d="M19.383,22.748l-3.88-3.88a4.85,4.85,0,0,1,5.12-7.976V2H13.078A1.078,1.078,0,0,0,12,3.078V23.556a1.078,1.078,0,0,0,1.078,1.078h6.359a9.431,9.431,0,0,1-.054-1.886Zm7.706-19.67A1.078,1.078,0,0,0,26.011,2H22.778V12.4l4.311,4.311Z"/><path class="a" d="M35.19,25.38l-2.533-2.587v6.952l-.647.539-7.76-7.706a2.694,2.694,0,1,0-3.772,3.772l4.635,4.635a6.952,6.952,0,0,0,.539,4.8H20.963a10.508,10.508,0,0,0,1.617,4.042c1.509,2.425,1.455,3.126,1.455,3.5H36.968s.054-7.221.054-11.856C36.968,28.344,36.537,26.673,35.19,25.38Z" transform="translate(-3.412 -8.991)"/></g></svg>