<svg xmlns="http://www.w3.org/2000/svg" width="26" height="32" viewBox="0 0 26 32"><defs><style>.a{fill:#fff;}</style></defs><path class="a" d="M32.818,23.06A9.882,9.882,0,0,0,27.3,19.374l-2.273,7.959a1.333,1.333,0,0,1-2.667,0V21a1.667,1.667,0,1,0-3.333,0v6.333a1.333,1.333,0,1,1-2.667,0l-2.273-7.959a9.918,9.918,0,0,0-5.52,3.686A6.051,6.051,0,0,0,7.692,26v3.333A2.666,2.666,0,0,0,10.359,32H31.026a2.666,2.666,0,0,0,2.667-2.667V26A6.046,6.046,0,0,0,32.818,23.06ZM20.692,16.667c4.493,0,7-5.72,7-9.613a7,7,0,1,0-14,0C13.692,10.947,16.119,16.667,20.692,16.667Z" transform="translate(-7.692)"/></svg>