<svg xmlns="http://www.w3.org/2000/svg" width="24" height="25.497" viewBox="0 0 24 25.497"><defs><style>.a{fill:#fff;}</style></defs><g transform="translate(-1 -8.932)"><path class="a" d="M18.164,33.192c-3.6-.756-3.6-1.89-3.6-2.646V29.79a6.99,6.99,0,0,0,1.868-3.307c1.112,0,1.334-2.409,1.334-2.74s.044-1.8-1.067-1.8c2.4-6.8-3.913-9.543-8.671-6.047-1.957,0-2.134,3.024-1.378,6.047-1.112,0-1.067,1.417-1.067,1.8s.267,2.74,1.334,2.74A6.99,6.99,0,0,0,8.782,29.79v.756c0,.756,0,1.89-3.6,2.646A5.391,5.391,0,0,0,1,37.349H22.344S22.344,34.089,18.164,33.192Z" transform="translate(0 -2.92)"/><path class="a" d="M52.371,9.288l-3.062,3.433L47.685,11.1a.928.928,0,0,0-1.3,1.3L49.4,15.413l4.361-4.918a.936.936,0,0,0-1.392-1.253Z" transform="translate(-29.003)"/></g></svg>